<?xml version="1.0" standalone="no"?><!DOCTYPE svg PUBLIC "-//W3C//DTD SVG 1.1//EN" "http://www.w3.org/Graphics/SVG/1.1/DTD/svg11.dtd"><svg t="1603529445437" class="icon" viewBox="0 0 1024 1024" version="1.1" xmlns="http://www.w3.org/2000/svg" p-id="1186" xmlns:xlink="http://www.w3.org/1999/xlink" width="200" height="200"><defs><style type="text/css"></style></defs><path d="M665.4 502.7c0-3.6 0.9-7 2-11.3l-57.4 0.8c-5.5 0.4-10.6-4.5-10.8-10.9-0.4-5.5 4.5-10.6 10.9-10.8l88.3-1.1c18.1 0.1 33.4 14.9 33.3 33-0.1 18.1-14.9 33.4-33 33.3-18.1-0.1-33.4-14.9-33.3-33zM569 692.2c-38.2 0.2-45.3-121.3-45.3-121.3l88.3-1.1s-3.9 122.4-43 122.4zM355.3 484.4c0.4-5.3 5.4-10.4 10.9-10.8l88.3-1.1c18.1 0.1 33.4 14.9 33.3 33-0.1 18.1-14.9 33.4-33 33.3-18.1-0.1-33.4-14.9-33.3-33 0-3.6 1.1-7.9 2-11.3l-57.4 0.8c-5.5 0.5-10.6-4.5-10.8-10.9z" p-id="1187" fill="#13227a"></path><path d="M511.4 86.8c-248.5 0-450 201.5-450 450 0 173.1 97.8 323.5 241.2 398.8-4.7-30.4-2.8-62.7 6.7-79.3l42.8-75.8C275.3 727.8 225 640.6 225 541.7c0-160.8 132.8-291.2 296.6-291.2s296.6 130.3 296.6 291.2c0 103.3-55 193.9-137.6 245.5l41.2 69c9.6 16.1 10.3 46.7 4.3 76.2 140.2-76.2 235.4-224.8 235.4-395.6-0.1-248.5-201.6-450-450.1-450z" p-id="1188" fill="#13227a"></path></svg>